# xmcd CD database file
# Copyright (C) 1993-1998 Ti Kan
# 
# Track frame offsets:
# 200
# 18302
# 31930
# 44185
# 65437
# 83710
# 96262
# 107805
# 125967
# 140897
# 160075
# 173300
# 190557
# 208390
# 228720
# 244282
# 261325
# 283515
# 
# Disc length: 4000 seconds
# 
# Revision: 0
# Processed by: cddbd v1.4b41PL1 Copyright (c) Steve Scherf et al.
# Submitted via: SuperSonic v3.0
# 
DISCID=0d0f9e12
DTITLE=Tom Morrel and The Time Warp TH - How the West Was Swung Vol. 6
DYEAR=1900
DGENRE=
TTITLE0=River Road Two Step
TTITLE1=Reckon I'm A Texan Till I Die
TTITLE2=End of the Line
TTITLE3=I Gotta Have My Baby Back
TTITLE4=Tater Pie
TTITLE5=Eating Right Out Of Your Hand
TTITLE6=Sioux City Sue
TTITLE7=Bandera Waltz
TTITLE8=Roly Poly
TTITLE9=You Don't Love Me But I'll Always Care/King Without A Queen
TTITLE10=Boot Heel Drag
TTITLE11=Don't Fence Me In/Hills of Old Wyoming
TTITLE12=Still A Lot Of Love in San Antone
TTITLE13=Night Riders Lament
TTITLE14=Sugar Moon
TTITLE15=Let Me Talk To You
TTITLE16=Adios Maraquita Linda/Home In San Antone
TTITLE17=Empty Saddles
EXTD=
EXTT0=
EXTT1=
EXTT2=
EXTT3=
EXTT4=
EXTT5=
EXTT6=
EXTT7=
EXTT8=
EXTT9=
EXTT10=
EXTT11=
EXTT12=
EXTT13=
EXTT14=
EXTT15=
EXTT16=
EXTT17=
PLAYORDER=
